<svg width="21" height="29" viewBox="0 0 21 29" fill="none" xmlns="http://www.w3.org/2000/svg">
<path d="M20.8285 9.06262C20.8285 6.65906 19.7312 4.35395 17.7782 2.65438C15.8251 0.954808 13.1763 0 10.4142 0C7.6522 0 5.0033 0.954808 3.05026 2.65438C1.09721 4.35395 0 6.65906 0 9.06262C0 9.54333 0.219442 10.0043 0.610052 10.3443C1.00066 10.6842 1.53044 10.8751 2.08285 10.8751C2.63525 10.8751 3.16503 10.6842 3.55564 10.3443C3.94625 10.0043 4.16569 9.54333 4.16569 9.06262C4.16569 7.98717 4.53216 6.93587 5.21876 6.04166C5.90536 5.14746 6.88124 4.45051 8.02301 4.03896C9.16479 3.6274 10.4212 3.51972 11.6333 3.72953C12.8454 3.93934 13.9587 4.45722 14.8326 5.21767C15.7065 5.97813 16.3016 6.94701 16.5427 8.0018C16.7838 9.05658 16.6601 10.1499 16.1871 11.1435C15.7142 12.1371 14.9133 12.9863 13.8857 13.5838C12.8582 14.1813 11.6501 14.5002 10.4142 14.5002C9.86182 14.5002 9.33204 14.6911 8.94143 15.0311C8.55082 15.371 8.33138 15.832 8.33138 16.3127V19.9378C8.33138 20.4185 8.55082 20.8795 8.94143 21.2194C9.33204 21.5593 9.86182 21.7503 10.4142 21.7503C10.9666 21.7503 11.4964 21.5593 11.887 21.2194C12.2776 20.8795 12.4971 20.4185 12.4971 19.9378V17.944C14.8494 17.5261 16.9635 16.4139 18.4817 14.7954C19.9999 13.177 20.8289 11.1518 20.8285 9.06262Z" fill="white"/>
<path d="M10.4144 29C11.5647 29 12.4972 28.1885 12.4972 27.1875C12.4972 26.1864 11.5647 25.375 10.4144 25.375C9.26405 25.375 8.33153 26.1864 8.33153 27.1875C8.33153 28.1885 9.26405 29 10.4144 29Z" fill="white"/>
</svg>
