<svg width="25" height="25" viewBox="0 0 25 25" fill="none" xmlns="http://www.w3.org/2000/svg">
<path d="M12.5 5.20831C8.48022 5.20831 5.20834 8.48019 5.20834 12.5C5.20834 16.5198 8.48022 19.7916 12.5 19.7916C16.5198 19.7916 19.7917 16.5198 19.7917 12.5C19.7917 8.48019 16.5198 5.20831 12.5 5.20831ZM12.5 17.7083C9.62814 17.7083 7.29168 15.3719 7.29168 12.5C7.29168 9.6281 9.62814 7.29165 12.5 7.29165C15.3719 7.29165 17.7083 9.6281 17.7083 12.5C17.7083 15.3719 15.3719 17.7083 12.5 17.7083Z" fill="black"/>
<path d="M12.5 9.375C10.8052 9.375 9.375 10.8052 9.375 12.5C9.375 14.1948 10.8052 15.625 12.5 15.625C14.1948 15.625 15.625 14.1948 15.625 12.5C15.625 10.8052 14.1948 9.375 12.5 9.375Z" fill="black"/>
</svg>
